<?xml version="1.0" encoding="utf-8"?>
<!-- Generator: Adobe Illustrator 22.0.1, SVG Export Plug-In . SVG Version: 6.00 Build 0)  -->
<svg version="1.1" id="Layer_1" xmlns="http://www.w3.org/2000/svg" xmlns:xlink="http://www.w3.org/1999/xlink" x="0px" y="0px"
	 viewBox="0 0 152.4 194.5" style="enable-background:new 0 0 152.4 194.5;" xml:space="preserve">
<style type="text/css">
	.st0{fill:none;}
	.st1{fill:#CD1E50;}
	.st2{fill:#283574;}
</style>
<title>Asset 36</title>
<g id="Layer_2_1_">
	<g id="Layer_1-2">
		<line class="st0" x1="106.7" y1="156.4" x2="120.6" y2="169.1"/>
		<path class="st1" d="M91.3,143.9c0-0.3,0-0.5,0-0.8c-0.3-8.4-7.3-14.9-15.7-14.6c-7.9,0.3-14.3,6.7-14.6,14.6c0,0.3,0,0.5,0,0.8
			l15.1,13.8L91.3,143.9z"/>
		<path class="st1" d="M61.1,143.9c0.6,7.9,7.2,14,15.1,13.8"/>
		<path class="st1" d="M76.2,157.8c7.9,0.1,14.5-5.9,15.1-13.8"/>
		<path class="st1" d="M76.2,107.8c13.2,0,25.2,7.9,30.5,20l13.8-12.7c-14.4-24.5-45.8-32.7-70.3-18.4c-7.6,4.5-13.9,10.8-18.4,18.4
			l13.8,12.7C51,115.7,63,107.8,76.2,107.8z"/>
		<path class="st2" d="M76.2,178.1c-18.5-0.1-33.4-17.1-33.6-35.5c0-2.8,0.3-5.6,1.1-8.4l-14.6-13.4c-12,26-0.6,56.9,25.4,68.9
			c6.8,3.1,14.2,4.8,21.7,4.8"/>
		<path class="st2" d="M76.2,176.4c-13.7,0-25.2-7.6-30.4-19.4l-14,12.1c14.4,24.5,45.8,32.7,70.3,18.4c7.6-4.5,13.9-10.8,18.4-18.4
			l-13.8-12.7C101.4,168.6,89.5,176.4,76.2,176.4z"/>
		<path class="st1" d="M18.3,42.2c3.3,1,5.7,2.8,6.8,5.9c1.5,4.2,0,7.8-3.1,10.9c-0.6,0.6-1.3,1.1-2,1.6c-0.4,0.2-0.7,0.7-0.5,1.1
			c0,0,0,0.1,0.1,0.1c0.8,2,1.6,4,2.3,6l0.4,1l-4.4,1.7L15,63c-1.5,0.1-3.1,0.1-4.6,0c-3.6-0.3-6.4-1.8-8.2-4.8S0.8,52.1,2.4,49
			c0.3-0.5,0.3-1.1-0.1-1.6c-1.4-2-1.4-4.7,0-6.8c0.4-0.6,0.4-1.4,0-1.9c-1.5-2.4-0.8-5.6,1.7-7.1c0,0,0.1,0,0.1-0.1
			c2.5-1.6,5.8-1,7.5,1.4c0.4,0.7,0.6,1.5,0.9,2.3c0.1,0.3,0.4,0.7,0.7,0.8C16.3,37,18.1,38.9,18.3,42.2z"/>
		<path class="st1" d="M32,61.2l-3.1-9.4c-1.4-4.1-0.5-8.1,2-8.9l1.3-0.4c2.4-0.8,5.5,1.9,6.8,6l3.1,9.4L32,61.2z"/>
		<path class="st1" d="M26.6,39.4c0.6,2.1,2.8,3.3,4.9,2.7c2.1-0.6,3.3-2.8,2.7-4.9c-0.6-2.1-2.8-3.3-4.9-2.7c0,0-0.1,0-0.1,0
			C27.1,35.2,26,37.4,26.6,39.4z"/>
		<path class="st1" d="M39.6,2.2l4.1,54.2l29.5-2.2L69,0L39.6,2.2z M65.4,15.5l-7.9,0.6l-0.7-9.8l7.9-0.6L65.4,15.5z M58.8,32.2
			l8-0.6l0.7,9.8l-8,0.6L58.8,32.2z M57.8,19.4l8-0.6l0.7,9.8l-8,0.6L57.8,19.4z M46,33.2l8-0.6l0.7,9.8l-8,0.6L46,33.2z M45,20.4
			l8-0.6l0.7,9.8l-8,0.6L45,20.4z M44,7.3l8-0.6l0.7,10l-8,0.6L44,7.3z"/>
		<path class="st1" d="M120.7,37.1c1.7,1.8,2.4,4.3,1.9,6.7c-0.9,3.8-3.7,5.6-7.6,6.3c-1-0.1-1.2,0-1.3,0.6
			c-0.3,1.7-0.6,3.3-0.9,4.9l-0.2,0.8l-3.4-0.6l1.2-6.2c-1-0.5-2-1.2-2.9-1.8c-2.1-1.5-3.3-3.9-3.1-6.5c0.1-2.5,1.5-4.8,3.7-6
			c0.4-0.2,0.7-0.6,0.6-1.1c-0.1-1.9,1-3.7,2.7-4.5c0.5-0.2,0.8-0.7,0.8-1.3c0-2.2,1.8-4,3.9-4c2.2-0.1,4.1,1.6,4.1,3.9
			c0,0,0,0,0,0.1c-0.1,0.6-0.2,1.2-0.4,1.9c-0.1,0.3,0,0.6,0.1,0.8C121.5,32.6,121.8,35.1,120.7,37.1z"/>
		<path class="st1" d="M118.6,60.9l3.6-9.2c1.6-4,4.8-6.6,7.2-5.6l1.3,0.5c2.4,0.9,3.1,5,1.5,9.1l-3.6,9.2L118.6,60.9z"/>
		<path class="st1" d="M128.4,40.7c-0.9,2,0.1,4.3,2,5.2c2,0.9,4.3-0.1,5.2-2c0.9-2-0.1-4.3-2-5.2c0,0-0.1,0-0.1-0.1
			C131.5,37.7,129.2,38.7,128.4,40.7C128.4,40.6,128.4,40.6,128.4,40.7z"/>
		<path class="st1" d="M130.3,66.1l3.2-5.6c1.4-2.5,3.7-3.8,5.2-2.9l0.8,0.4c1.4,0.8,1.5,3.5,0.1,5.9l-3.2,5.6L130.3,66.1z"/>
		<path class="st1" d="M138.5,54.1c-0.7,1.2-0.4,2.8,0.8,3.5c1.2,0.7,2.8,0.4,3.5-0.8c0.7-1.2,0.4-2.8-0.8-3.5c0,0,0,0-0.1,0
			C140.7,52.5,139.2,52.9,138.5,54.1z"/>
		<path class="st1" d="M76.2,70.6c-23.9,0-46.2,11.9-59.4,31.7L0,87c30.5-42.1,89.3-51.5,131.4-21.1c8.1,5.9,15.2,13,21.1,21.1
			l-16.8,15.4C122.4,82.5,100.1,70.6,76.2,70.6z"/>
		<path class="st1" d="M74.9,32.5c-0.1,0.9,0.4,1.8,1.2,2.2l-0.9,11.5L75.1,49l2.8,0.3l0.2-2.8l0.6-8l8.4,0.9l-0.6,8l-0.2,2.8
			l15.4,1.6l0.2-2.8l0.9-11.5c0.9-0.2,1.5-1,1.6-1.9l-1.7-5.9l0.2-2.1c0.1-0.8-0.5-1.5-1.3-1.6l-22.4-2.3c-0.8-0.1-1.4,0.5-1.5,1.2
			c0,0,0,0,0,0L77.4,27L74.9,32.5z M95.6,28.9l3.5,0.4l0.8,4.8l0.2,1c-0.1,1.1-1.1,2-2.2,1.9c0,0,0,0-0.1,0c-1.2-0.1-2-1.2-1.9-2.3
			c0-0.2,0-0.4,0-0.5L95.6,28.9L95.6,28.9z M99.3,45.6l-9.8-1l0.4-4.9l9.8,1L99.3,45.6z M87.5,33.8l0.4-5.7l4.2,0.4l-0.4,5.7
			c0,1.1-1,2-2.1,1.9c-0.1,0-0.1,0-0.2,0C88.2,36,87.4,35,87.5,33.8z M79.1,33l0.3-1l1.5-4.6l3.5,0.4l-1,5.1
			c-0.1,0.2-0.1,0.3-0.1,0.5c-0.1,1.1-1.1,2-2.2,1.9c0,0-0.1,0-0.1,0C79.9,35.2,79,34.2,79.1,33z"/>
	</g>
</g>
</svg>
