<?xml version="1.0" encoding="utf-8"?>
<!-- Generator: Adobe Illustrator 22.0.1, SVG Export Plug-In . SVG Version: 6.00 Build 0)  -->
<svg version="1.1" id="Layer_1" xmlns="http://www.w3.org/2000/svg" xmlns:xlink="http://www.w3.org/1999/xlink" x="0px" y="0px"
	 viewBox="0 0 708.3 218.1" style="enable-background:new 0 0 708.3 218.1;" xml:space="preserve">
<style type="text/css">
	.st0{enable-background:new    ;}
	.st1{fill:#283574;}
	.st2{fill:none;}
	.st3{fill:#CD1E50;}
</style>
<title>Asset 34</title>
<g id="Layer_2_1_">
	<g id="Layer_1-2">
		<g class="st0">
			<path class="st1" d="M510.2,141.1c0,7.5-1.2,14.4-3.5,20.8c-2.3,6.4-5.6,11.9-9.8,16.5c-4.2,4.7-9.2,8.3-15.1,10.9
				c-5.9,2.6-12.4,3.9-19.6,3.9c-7.2,0-13.7-1.3-19.6-3.9c-5.9-2.6-11-6.2-15.2-10.9c-4.2-4.7-7.5-10.2-9.8-16.5
				c-2.3-6.4-3.5-13.3-3.5-20.8s1.2-14.4,3.5-20.8c2.3-6.4,5.6-11.9,9.8-16.5c4.2-4.7,9.3-8.3,15.2-10.9c5.9-2.6,12.5-3.9,19.6-3.9
				c7.2,0,13.7,1.3,19.6,3.9c5.9,2.6,11,6.3,15.1,10.9c4.2,4.6,7.5,10.1,9.8,16.5C509,126.7,510.2,133.7,510.2,141.1z M492.1,141.1
				c0-5.6-0.7-10.6-2.1-15.1c-1.4-4.4-3.4-8.2-5.9-11.3s-5.7-5.5-9.4-7.1c-3.7-1.6-7.9-2.5-12.5-2.5c-4.6,0-8.8,0.8-12.5,2.5
				c-3.7,1.6-6.9,4-9.5,7.1c-2.6,3.1-4.6,6.9-6,11.3c-1.4,4.4-2.1,9.5-2.1,15.1c0,5.6,0.7,10.6,2.1,15.1c1.4,4.4,3.4,8.2,6,11.3
				c2.6,3.1,5.8,5.4,9.5,7.1c3.7,1.6,7.9,2.5,12.5,2.5c4.6,0,8.8-0.8,12.5-2.5c3.7-1.6,6.8-4,9.4-7.1s4.6-6.8,5.9-11.3
				C491.4,151.7,492.1,146.7,492.1,141.1z"/>
		</g>
		<g class="st0">
			<path class="st1" d="M571.4,154.5c0.6,1.6,1.3,3.3,1.9,4.9c0.6-1.7,1.2-3.4,1.9-5c0.7-1.6,1.4-3.2,2.1-4.7l28.1-56.5
				c0.3-0.7,0.7-1.3,1.1-1.7c0.4-0.4,0.8-0.7,1.2-0.9c0.5-0.2,1-0.3,1.5-0.4c0.6,0,1.2-0.1,2-0.1h13.3v101.9H609v-65.8
				c0-1.2,0-2.6,0.1-4c0.1-1.5,0.2-2.9,0.3-4.4l-28.7,57.8c-0.7,1.3-1.5,2.3-2.6,3.1c-1,0.7-2.3,1.1-3.7,1.1h-2.4
				c-1.4,0-2.6-0.4-3.7-1.1s-1.9-1.8-2.6-3.1l-29-58c0.2,1.6,0.3,3.1,0.4,4.5c0.1,1.5,0.1,2.9,0.1,4.1v65.8h-15.5V90.2h13.3
				c0.8,0,1.5,0,2,0.1c0.6,0,1.1,0.2,1.5,0.4c0.5,0.2,0.9,0.5,1.3,0.9c0.4,0.4,0.8,1,1.1,1.7l28.3,56.6
				C570.1,151.3,570.8,152.9,571.4,154.5z"/>
		</g>
		<g class="st0">
			<path class="st1" d="M701.2,90.2v15.1h-42v28.3h33.1v14.6h-33.1V177h42v15.2h-59.8V90.2H701.2z"/>
		</g>
		<g class="st0">
			<path class="st1" d="M0.8,90.7h15.9c1.6,0,3,0.4,4.1,1.2c1.1,0.8,1.8,1.8,2.2,3.1l17.3,61c0.4,1.5,0.8,3.1,1.2,4.9
				c0.4,1.8,0.7,3.6,1,5.6c0.4-2,0.8-3.8,1.2-5.6c0.4-1.8,0.9-3.4,1.4-4.9l20-61c0.4-1.1,1.1-2.1,2.2-3c1.1-0.9,2.5-1.3,4.1-1.3h5.6
				c1.6,0,3,0.4,4.1,1.2c1.1,0.8,1.8,1.8,2.3,3.1l19.9,61c1,3,1.9,6.3,2.7,10c0.3-1.8,0.7-3.6,1-5.3c0.4-1.7,0.7-3.3,1.1-4.7
				l17.3-61c0.3-1.2,1.1-2.2,2.2-3s2.5-1.3,4.1-1.3h14.9l-31.7,101.9H97.9L75.6,123c-0.3-0.9-0.6-1.9-0.9-2.9
				c-0.3-1-0.6-2.1-0.9-3.3c-0.3,1.2-0.6,2.3-0.9,3.3c-0.3,1-0.6,2-0.9,2.9l-22.5,69.7H32.5L0.8,90.7z"/>
		</g>
		<g class="st0">
			<path class="st1" d="M218.8,90.7v15.1h-45.2V134h35.6v14.6h-35.6v28.8h45.2v15.2h-64.3V90.7H218.8z"/>
		</g>
		<g class="st0">
			<path class="st1" d="M250.2,177h40.8v15.7h-59.8V90.7h19V177z"/>
		</g>
		<line class="st2" x1="379.7" y1="156.4" x2="393.5" y2="169.1"/>
		<path class="st3" d="M364.3,143.9c0-0.3,0-0.5,0-0.8c-0.3-8.4-7.3-14.9-15.7-14.6c-7.9,0.3-14.3,6.7-14.6,14.6c0,0.3,0,0.5,0,0.8
			l15.1,13.8L364.3,143.9z"/>
		<path class="st3" d="M334,143.9c0.6,7.9,7.2,14,15.1,13.8"/>
		<path class="st3" d="M349.2,157.8c7.9,0.1,14.5-6,15.1-13.8"/>
		<path class="st3" d="M349.2,107.8c13.2,0,25.2,7.9,30.5,20l13.8-12.7c-14.3-24.5-45.8-32.7-70.3-18.4
			c-7.6,4.5-13.9,10.8-18.4,18.4l13.8,12.7C323.9,115.7,335.9,107.8,349.2,107.8z"/>
		<path class="st1" d="M349.2,178.1c-18.5-0.1-33.4-17.1-33.6-35.5c0-2.8,0.3-5.6,1.1-8.4L302,120.9c-12,26-0.6,56.9,25.4,68.9
			c6.8,3.1,14.2,4.8,21.8,4.8"/>
		<path class="st1" d="M349.2,176.4c-13.7,0-25.2-7.6-30.4-19.4l-14,12.1c14.3,24.5,45.8,32.7,70.3,18.4
			c7.6-4.5,13.9-10.8,18.4-18.4l-13.8-12.7C374.4,168.5,362.4,176.4,349.2,176.4z"/>
		<path class="st3" d="M291.2,42.2c3.3,1,5.7,2.8,6.8,5.9c1.5,4.2,0,7.8-3.1,10.9c-0.6,0.6-1.3,1.1-2,1.6c-0.4,0.2-0.6,0.7-0.5,1.1
			c0,0,0,0.1,0.1,0.1c0.8,2,1.6,4,2.3,6l0.4,1l-4.4,1.7l-3-7.6c-1.5,0.1-3.1,0.1-4.6,0c-3.5-0.4-6.4-1.8-8.1-4.9s-1.5-6.1,0.1-9.1
			c0.3-0.5,0.3-1.1-0.1-1.6c-1.4-2-1.4-4.7,0-6.8c0.5-0.6,0.5-1.4,0-1.9c-1.5-2.4-0.7-5.6,1.7-7.1c0,0,0,0,0.1,0
			c2.5-1.6,5.8-1,7.5,1.4c0.4,0.7,0.6,1.5,0.9,2.3c0.1,0.3,0.4,0.7,0.7,0.8C289.2,37,291,38.9,291.2,42.2z"/>
		<path class="st3" d="M304.9,61.2l-3.1-9.4c-1.3-4.1-0.5-8.1,2-8.9l1.3-0.4c2.4-0.8,5.5,1.9,6.9,6l3,9.4L304.9,61.2z"/>
		<path class="st3" d="M299.5,39.4c0.6,2.1,2.8,3.3,4.9,2.7c2.1-0.6,3.3-2.8,2.7-4.9s-2.8-3.3-4.9-2.7c0,0-0.1,0-0.1,0
			C300,35.2,298.9,37.4,299.5,39.4z"/>
		<path class="st3" d="M312.5,2.2l4.1,54.2l29.4-2.2L342,0L312.5,2.2z M338.4,15.5l-7.9,0.6l-0.7-9.8l7.9-0.6L338.4,15.5z
			 M331.7,32.2l8-0.6l0.7,9.8l-8,0.6L331.7,32.2z M330.7,19.4l8-0.6l0.7,9.8l-8,0.6L330.7,19.4z M318.9,33.2l8-0.6l0.7,9.8l-8,0.6
			L318.9,33.2z M317.9,20.4l8-0.6l0.7,9.8l-8,0.6L317.9,20.4z M317,7.3l8-0.6l0.7,10l-8,0.6L317,7.3z"/>
		<path class="st3" d="M393.6,37.1c1.7,1.8,2.4,4.3,1.9,6.7c-0.9,3.8-3.7,5.6-7.6,6.3c-1-0.1-1.2,0-1.3,0.6
			c-0.3,1.7-0.6,3.3-0.9,4.9l-0.2,0.8l-3.4-0.6l1.2-6.2c-1-0.5-1.9-1.2-2.9-1.8c-2.1-1.5-3.2-3.9-3.1-6.5c0.1-2.5,1.5-4.8,3.7-6
			c0.4-0.2,0.6-0.6,0.6-1.1c-0.1-1.9,1-3.7,2.7-4.5c0.5-0.2,0.8-0.7,0.8-1.3c0-2.2,1.8-4,3.9-4c2.2-0.1,4.1,1.7,4.1,3.9
			c0,0,0,0,0,0.1c-0.1,0.6-0.2,1.3-0.4,1.9c-0.1,0.3,0,0.6,0.1,0.8C394.4,32.6,394.7,35.1,393.6,37.1z"/>
		<path class="st3" d="M391.6,60.9l3.6-9.2c1.6-4,4.8-6.6,7.2-5.6l1.3,0.5c2.4,0.9,3.1,5,1.5,9.1l-3.6,9.2L391.6,60.9z"/>
		<path class="st3" d="M401.3,40.7c-0.9,2,0,4.3,2,5.2c2,0.9,4.3,0,5.2-2c0.9-2,0-4.3-2-5.2c0,0-0.1,0-0.1-0.1
			C404.4,37.7,402.1,38.7,401.3,40.7z"/>
		<path class="st3" d="M403.2,66.1l3.2-5.6c1.4-2.5,3.7-3.8,5.2-2.9l0.8,0.4c1.5,0.8,1.5,3.5,0.1,5.9l-3.2,5.6L403.2,66.1z"/>
		<path class="st3" d="M411.4,54.1c-0.7,1.2-0.4,2.8,0.8,3.5c1.2,0.7,2.8,0.4,3.5-0.8s0.4-2.8-0.8-3.5c0,0,0,0-0.1,0
			C413.7,52.5,412.1,52.9,411.4,54.1z"/>
		<path class="st3" d="M349.2,70.6c-23.9,0-46.2,11.9-59.4,31.7L272.9,87c30.5-42.1,89.3-51.5,131.4-21.1c8.1,5.9,15.2,13,21.1,21.1
			l-16.8,15.4C395.3,82.5,373,70.6,349.2,70.6z"/>
		<path class="st3" d="M347.8,32.5c-0.1,0.9,0.4,1.8,1.2,2.2l-0.9,11.5L348,49l2.8,0.3l0.2-2.8l0.6-8l8.4,0.9l-0.6,8l-0.2,2.8
			l15.4,1.6l0.2-2.8l0.9-11.5c0.9-0.2,1.5-1,1.5-1.9l-1.7-5.9l0.2-2.1c0-0.8-0.5-1.4-1.3-1.5L352,23.6c-0.8-0.1-1.4,0.5-1.5,1.2
			c0,0,0,0,0,0l-0.2,2.1L347.8,32.5z M368.5,28.9l3.5,0.4l0.8,4.8l0.2,1c-0.1,1.1-1.1,2-2.2,1.9c0,0,0,0-0.1,0
			c-1.2-0.1-2-1.2-1.9-2.3c0-0.2,0-0.4,0-0.5L368.5,28.9L368.5,28.9z M372.2,45.6l-9.8-1l0.4-4.9l9.8,1L372.2,45.6z M360.4,33.8
			l0.4-5.7l4.2,0.4l-0.4,5.7c0,1.1-1,2-2.1,1.9c-0.1,0-0.1,0-0.2,0C361.2,36,360.3,35,360.4,33.8z M352,33l0.3-1l1.5-4.6l3.5,0.4
			l-1,5.1c-0.1,0.2-0.1,0.3-0.1,0.5c-0.1,1.1-1,2-2.1,1.9c0,0-0.1,0-0.1,0C352.8,35.2,351.9,34.2,352,33z"/>
	</g>
</g>
</svg>
