<svg xmlns="http://www.w3.org/2000/svg" viewBox="0 0 152.44 194.52"><defs><style>.cls-1,.cls-2{fill:#424142;}.cls-2{fill-rule:evenodd;}</style></defs><title>Asset 40</title><g id="Layer_2" data-name="Layer 2"><g id="Layer_1-2" data-name="Layer 1"><path class="cls-1" d="M91.34,143.92c0-.27,0-.53,0-.8a15.17,15.17,0,0,0-30.32,0c0,.27,0,.53,0,.8l15.12,13.84Z"/><path class="cls-1" d="M61.1,143.92a14.94,14.94,0,0,0,15.12,13.84"/><path class="cls-1" d="M76.22,157.76a14.92,14.92,0,0,0,15.12-13.84"/><path class="cls-1" d="M76.22,107.82a33.29,33.29,0,0,1,30.52,20l13.84-12.67a51.41,51.41,0,0,0-88.72,0L45.7,127.81A33.31,33.31,0,0,1,76.22,107.82Z"/><path class="cls-1" d="M76.22,178.11c-18.47-.05-33.36-17.06-33.63-35.51a32,32,0,0,1,1.06-8.36L29.07,120.86a51.92,51.92,0,0,0,47.15,73.66"/><path class="cls-1" d="M76.22,176.41c-13.65,0-25.25-7.62-30.38-19.39l-14,12.07a51.41,51.41,0,0,0,88.72,0l-13.84-12.67A33.29,33.29,0,0,1,76.22,176.41Z"/><path class="cls-2" d="M18.29,42.21c3.27,1,5.71,2.77,6.81,5.91,1.46,4.21,0,7.79-3.15,10.94a11.57,11.57,0,0,1-2,1.59.87.87,0,0,0-.4,1.27c.81,2,1.56,4,2.34,6l.39,1L17.9,70.63,15,63a41.51,41.51,0,0,1-4.58,0C6.85,62.68,4,61.21,2.24,58.17S.76,52.1,2.38,49a1.35,1.35,0,0,0-.08-1.61,6,6,0,0,1,0-6.77,1.52,1.52,0,0,0,0-1.91,5.14,5.14,0,0,1,1.78-7.15A5.5,5.5,0,0,1,11.59,33a13.21,13.21,0,0,1,.85,2.28c.14.32.39.74.68.83C16.28,37,18.08,38.94,18.29,42.21Z"/><path class="cls-1" d="M32,61.16l-3.06-9.4c-1.35-4.12-.45-8.11,2-8.91l1.3-.42c2.44-.8,5.51,1.9,6.85,6l3.07,9.39Z"/><path class="cls-1" d="M26.59,39.42a3.93,3.93,0,1,0,2.56-4.82A3.86,3.86,0,0,0,26.59,39.42Z"/><path class="cls-1" d="M39.56,2.21l4.07,54.18L73.1,54.18,69,0ZM65.44,15.49l-7.89.64-.74-9.82,7.89-.65ZM58.75,32.22l8-.6.74,9.83-8,.6Zm-1-12.83,8-.6.74,9.83-8,.6ZM46,33.18l8-.6.74,9.83-8,.6ZM45,20.35l8-.6.74,9.83-8,.6ZM44,7.27l8-.61.72,10-8,.6Z"/><path class="cls-2" d="M120.65,37.12a7.45,7.45,0,0,1,1.91,6.65c-.86,3.83-3.73,5.61-7.61,6.27-1-.13-1.22,0-1.32.63-.29,1.65-.61,3.29-.92,4.93l-.16.83-3.37-.64,1.18-6.24a26.74,26.74,0,0,1-2.87-1.82,7.62,7.62,0,0,1-3.14-6.5,7.16,7.16,0,0,1,3.69-6,1.05,1.05,0,0,0,.59-1.09,4.79,4.79,0,0,1,2.67-4.5,1.19,1.19,0,0,0,.76-1.26,4,4,0,0,1,3.94-4,4,4,0,0,1,4.14,3.93,13.6,13.6,0,0,1-.37,1.86,1.17,1.17,0,0,0,.09.82A5.11,5.11,0,0,1,120.65,37.12Z"/><path class="cls-1" d="M118.64,60.94l3.63-9.25c1.6-4,4.84-6.58,7.25-5.63l1.27.5c2.41.94,3.06,5,1.47,9.06l-3.64,9.24Z"/><path class="cls-1" d="M128.39,40.65a3.94,3.94,0,1,0,5.06-2.1A3.87,3.87,0,0,0,128.39,40.65Z"/><path class="cls-1" d="M130.28,66.13l3.22-5.56c1.41-2.45,3.72-3.75,5.17-2.91l.77.44c1.44.84,1.48,3.49.07,5.94l-3.22,5.56Z"/><path class="cls-1" d="M138.47,54.09a2.55,2.55,0,1,0,3.44-.86A2.51,2.51,0,0,0,138.47,54.09Z"/><path class="cls-1" d="M76.22,70.62A71.41,71.41,0,0,0,16.8,102.36L0,87a94.08,94.08,0,0,1,152.44,0l-16.8,15.39A71.41,71.41,0,0,0,76.22,70.62Z"/><path class="cls-1" d="M74.88,32.51a2.16,2.16,0,0,0,1.25,2.16l-.87,11.49L75.05,49l2.8.29.21-2.85.6-8,8.39.88-.6,8-.21,2.84,15.38,1.61.21-2.84.87-11.49a2,2,0,0,0,1.55-1.88l-1.67-5.9.16-2.14a1.47,1.47,0,0,0-1.3-1.56L79.07,23.63a1.38,1.38,0,0,0-1.51,1.28L77.4,27Zm20.7-3.57,3.5.36.8,4.81.17,1a2.06,2.06,0,0,1-2.26,1.91,2.2,2.2,0,0,1-1.93-2.35,2.45,2.45,0,0,0,0-.54l-.25-5.22Zm3.69,16.62-9.79-1,.37-4.88,9.79,1ZM87.47,33.82l.42-5.68,4.2.43-.43,5.69a2,2,0,0,1-2.26,1.91A2.19,2.19,0,0,1,87.47,33.82ZM79.07,33l.33-1,1.5-4.57,3.5.37-1,5.09a1.86,1.86,0,0,0-.11.52A2.06,2.06,0,0,1,81,35.3,2.21,2.21,0,0,1,79.07,33Z"/></g></g></svg>