<svg xmlns="http://www.w3.org/2000/svg" viewBox="0 0 708.35 218.06"><defs><style>.cls-1{font-size:141px;font-family:Lato-Bold, Lato;font-weight:700;}.cls-1,.cls-6,.cls-7{fill:#424142;}.cls-2{letter-spacing:-0.02em;}.cls-3{letter-spacing:-0.02em;}.cls-4{letter-spacing:-0.02em;}.cls-5{letter-spacing:-0.03em;}.cls-7{fill-rule:evenodd;}</style></defs><title>Asset 37</title><g id="Layer_2" data-name="Layer 2"><g id="Layer_1-2" data-name="Layer 1"><text class="cls-1" transform="translate(409.66 192.11) scale(0.93 1)"><tspan class="cls-2">O</tspan><tspan class="cls-3" x="110.24" y="0">M</tspan><tspan x="238.91" y="0">E</tspan></text><text class="cls-1" transform="translate(0 192.61)"><tspan class="cls-4">W</tspan><tspan class="cls-5" x="144.17" y="0">E</tspan><tspan x="220.98" y="0">L</tspan></text><line class="cls-6" x1="379.68" y1="156.42" x2="393.51" y2="169.09"/><path class="cls-6" d="M364.27,143.92c0-.27.05-.53.05-.8a15.17,15.17,0,0,0-30.32,0c0,.27,0,.53,0,.8l15.12,13.84Z"/><path class="cls-6" d="M334,143.92a14.92,14.92,0,0,0,15.12,13.84"/><path class="cls-6" d="M349.16,157.76a14.92,14.92,0,0,0,15.11-13.84"/><path class="cls-6" d="M349.16,107.82a33.31,33.31,0,0,1,30.52,20l13.83-12.67a51.4,51.4,0,0,0-88.71,0l13.84,12.67A33.29,33.29,0,0,1,349.16,107.82Z"/><path class="cls-6" d="M349.16,178.11c-18.48-.05-33.36-17.06-33.63-35.51a31.62,31.62,0,0,1,1.06-8.36L302,120.86a51.92,51.92,0,0,0,47.16,73.66"/><path class="cls-6" d="M349.16,176.41c-13.66,0-25.25-7.62-30.39-19.39l-14,12.07a51.4,51.4,0,0,0,88.71,0l-13.83-12.67A33.31,33.31,0,0,1,349.16,176.41Z"/><path class="cls-7" d="M291.22,42.21c3.27,1,5.72,2.77,6.81,5.91,1.47,4.21,0,7.79-3.15,10.94a11.22,11.22,0,0,1-2,1.59.87.87,0,0,0-.39,1.27c.8,2,1.56,4,2.33,6l.39,1-4.35,1.68L287.89,63a41.51,41.51,0,0,1-4.58,0c-3.53-.36-6.39-1.83-8.14-4.87s-1.47-6.07.14-9.14a1.34,1.34,0,0,0-.07-1.61,6,6,0,0,1,0-6.77,1.49,1.49,0,0,0,0-1.91A5.15,5.15,0,0,1,277,31.59a5.49,5.49,0,0,1,7.5,1.37,14.11,14.11,0,0,1,.86,2.28c.14.32.38.74.68.83C289.21,37,291,38.94,291.22,42.21Z"/><path class="cls-6" d="M304.88,61.16l-3.06-9.4c-1.34-4.12-.45-8.11,2-8.91l1.3-.42c2.44-.8,5.52,1.9,6.86,6L315,57.85Z"/><path class="cls-6" d="M299.52,39.42a3.93,3.93,0,1,0,2.56-4.82A3.87,3.87,0,0,0,299.52,39.42Z"/><path class="cls-6" d="M312.5,2.21l4.06,54.18L346,54.18,342,0ZM338.43,15.5l-7.95.63-.74-9.82,7.95-.64Zm-6.74,16.72,8-.6.74,9.83-8,.6Zm-1-12.83,8-.6.74,9.83-8,.6ZM318.89,33.18l8-.6.73,9.83-8,.6Zm-1-12.83,8-.6.74,9.83-8,.6ZM317,7.27l8-.61.72,10-8,.6Z"/><path class="cls-7" d="M393.58,37.12a7.45,7.45,0,0,1,1.91,6.65c-.85,3.83-3.73,5.61-7.61,6.27-1-.13-1.21,0-1.32.63-.28,1.65-.61,3.29-.92,4.93l-.16.83-3.37-.64,1.18-6.24a28.89,28.89,0,0,1-2.87-1.82,7.65,7.65,0,0,1-3.14-6.5,7.17,7.17,0,0,1,3.7-6,1.07,1.07,0,0,0,.59-1.09,4.78,4.78,0,0,1,2.67-4.5,1.2,1.2,0,0,0,.76-1.26,4,4,0,0,1,3.94-4,4,4,0,0,1,4.13,3.93,11.13,11.13,0,0,1-.37,1.86,1.17,1.17,0,0,0,.1.82A5.11,5.11,0,0,1,393.58,37.12Z"/><path class="cls-6" d="M391.57,60.94l3.64-9.25c1.59-4,4.84-6.58,7.24-5.63l1.28.5c2.4.94,3.06,5,1.46,9.06l-3.64,9.24Z"/><path class="cls-6" d="M401.32,40.65a3.95,3.95,0,1,0,5.06-2.1A3.88,3.88,0,0,0,401.32,40.65Z"/><path class="cls-6" d="M403.22,66.13l3.21-5.56c1.41-2.45,3.73-3.75,5.17-2.91l.77.44c1.45.84,1.48,3.49.07,5.94l-3.21,5.56Z"/><path class="cls-6" d="M411.4,54.09a2.55,2.55,0,1,0,3.44-.86A2.51,2.51,0,0,0,411.4,54.09Z"/><path class="cls-6" d="M349.16,70.62a71.41,71.41,0,0,0-59.42,31.74L272.93,87a94.09,94.09,0,0,1,152.45,0l-16.8,15.39A71.42,71.42,0,0,0,349.16,70.62Z"/><path class="cls-6" d="M347.81,32.51a2.16,2.16,0,0,0,1.25,2.16l-.86,11.49L348,49l2.8.29.22-2.85.59-8,8.39.88-.59,8-.22,2.84,15.39,1.61.21-2.84.86-11.49a2,2,0,0,0,1.55-1.88l-1.67-5.9.16-2.14A1.46,1.46,0,0,0,374.38,26L352,23.63a1.37,1.37,0,0,0-1.5,1.28L350.34,27Zm20.71-3.57,3.49.36.8,4.81.18,1a2.06,2.06,0,0,1-2.26,1.91,2.2,2.2,0,0,1-1.94-2.35,2.44,2.44,0,0,0,0-.54l-.25-5.22Zm3.68,16.62-9.79-1,.37-4.88,9.79,1ZM360.4,33.82l.43-5.68,4.19.43-.42,5.69a2,2,0,0,1-2.26,1.91A2.2,2.2,0,0,1,360.4,33.82ZM352,33l.32-1,1.5-4.57,3.5.37-1,5.09a2.29,2.29,0,0,0-.11.52A2,2,0,0,1,354,35.3,2.2,2.2,0,0,1,352,33Z"/></g></g></svg>